<?xml version="1.0" standalone="no"?>
<!DOCTYPE svg PUBLIC "-//W3C//DTD SVG 20010904//EN"
 "http://www.w3.org/TR/2001/REC-SVG-20010904/DTD/svg10.dtd">
<svg version="1.0" xmlns="http://www.w3.org/2000/svg"
 width="218.000000pt" height="231.000000pt" viewBox="0 0 218.000000 231.000000"
 preserveAspectRatio="xMidYMid meet">
<metadata>
Created by potrace 1.10, written by Peter Selinger 2001-2011
</metadata>
<g transform="translate(0.000000,231.000000) scale(0.100000,-0.100000)"
fill="#000000" stroke="none">
<path d="M940 2260 c-442 -71 -799 -419 -876 -855 -24 -135 -15 -351 20 -468
44 -148 121 -293 204 -387 18 -19 32 -38 32 -41 0 -9 128 -114 191 -157 108
-73 211 -118 354 -153 116 -27 331 -27 444 2 363 92 629 325 755 662 53 142
70 253 62 412 -5 132 -17 194 -55 305 -111 320 -382 569 -716 657 -101 27
-317 39 -415 23z m409 -46 c220 -58 422 -191 550 -362 140 -189 199 -352 208
-573 4 -96 2 -150 -12 -223 -9 -53 -20 -96 -24 -96 -4 0 -8 -11 -9 -24 -4 -59
-124 -292 -143 -280 -4 2 -9 -6 -11 -18 -2 -17 -9 -22 -23 -20 -16 2 -17 1 -5
-7 12 -8 9 -15 -19 -41 -19 -16 -38 -30 -42 -30 -4 0 -9 -10 -12 -21 -4 -15
-11 -20 -21 -16 -9 4 -16 2 -16 -4 0 -14 -26 -39 -40 -39 -6 0 -9 -4 -6 -9 7
-10 -18 -33 -31 -29 -4 2 -19 -7 -33 -20 -13 -12 -32 -22 -43 -22 -13 0 -17
-5 -13 -15 3 -8 1 -15 -4 -15 -6 0 -10 4 -10 10 0 5 -8 7 -17 4 -10 -4 0 10
22 31 l40 36 -47 -26 c-50 -28 -60 -25 -30 8 16 20 16 20 -2 13 -19 -6 -19 -6
-3 12 9 10 14 21 11 25 -3 3 9 13 28 23 18 9 49 33 69 53 35 35 36 38 29 90
-4 33 -2 71 6 103 12 46 19 55 83 105 10 7 11 12 4 13 -6 0 -25 -11 -41 -25
-35 -30 -43 -31 -36 -7 5 14 3 14 -10 -2 -9 -11 -16 -15 -16 -9 0 7 7 18 15
26 8 9 11 17 5 19 -6 2 -6 9 0 17 7 13 11 13 27 1 16 -13 16 -12 -1 8 -18 21
-20 21 -40 5 -12 -10 -15 -11 -8 -3 14 16 16 34 3 26 -15 -10 0 40 33 107 l31
65 -27 -3 c-28 -4 -35 3 -19 20 15 17 21 73 8 78 -9 3 -9 7 1 18 15 16 16 33
1 23 -8 -5 -8 -1 0 14 9 17 8 21 -6 21 -43 1 -99 15 -105 25 -6 8 -11 7 -18
-4 -15 -23 -12 4 5 36 14 27 46 43 42 21 -2 -14 36 -10 41 4 2 5 10 16 18 23
8 8 14 17 14 20 0 12 -42 5 -66 -11 -14 -9 -43 -18 -65 -20 -33 -3 -39 -1 -39
16 0 11 -3 26 -6 35 -4 11 -1 16 11 16 9 0 13 5 9 11 -5 8 1 10 20 7 14 -3 29
-1 32 3 3 5 11 9 17 9 7 0 6 -4 -3 -11 -12 -9 -11 -9 5 -3 35 13 76 5 97 -18
31 -34 63 -111 49 -116 -6 -2 -9 -8 -5 -13 3 -5 1 -9 -5 -9 -5 0 -12 8 -14 18
-3 10 -5 6 -6 -10 0 -16 4 -28 10 -28 8 0 7 -5 -1 -15 -21 -26 -5 -27 19 -1
17 18 22 36 22 79 1 30 -2 60 -5 65 -3 5 4 19 15 31 25 27 24 29 -27 36 -30 4
-35 3 -22 -5 10 -6 15 -17 11 -26 -5 -13 -10 -11 -29 10 -29 30 -29 35 -7 51
15 11 22 10 45 -7 28 -19 28 -19 25 1 -5 33 -37 62 -61 55 -15 -4 -17 -3 -7 4
20 14 -17 32 -68 32 -88 0 -157 -66 -149 -143 3 -24 12 -58 20 -77 9 -19 28
-64 43 -100 30 -73 50 -100 75 -100 35 0 44 -27 27 -72 -9 -22 -14 -45 -10
-51 4 -6 1 -7 -7 -2 -10 6 -11 4 -5 -11 10 -21 13 -171 5 -218 -3 -19 0 -31 9
-34 9 -3 11 1 6 17 -5 17 -2 21 14 21 22 0 28 -14 11 -25 -6 -4 -8 -11 -5 -16
4 -5 1 -9 -5 -9 -7 0 -10 -6 -7 -12 2 -7 0 -26 -4 -43 -5 -16 -5 -44 1 -63 8
-32 6 -37 -21 -63 -17 -16 -35 -29 -40 -29 -5 0 -9 -3 -9 -7 0 -5 -14 -16 -31
-25 -32 -19 -78 -15 -81 6 -5 42 -2 83 7 92 6 7 10 35 9 63 -1 30 2 48 8 45 5
-3 2 10 -6 30 -13 32 -13 39 4 38 3 0 11 6 18 14 14 15 9 17 -26 8 -22 -6 -22
-9 -16 -78 5 -59 3 -75 -10 -88 -11 -12 -16 -35 -16 -82 0 -59 -2 -66 -20 -66
-18 0 -20 7 -20 70 l0 70 -35 0 c-24 0 -35 -5 -35 -15 0 -8 9 -15 20 -15 23 0
36 -36 26 -74 -9 -35 -76 -44 -76 -10 0 8 9 14 20 14 13 0 20 7 20 20 0 14 -6
20 -17 18 -15 -2 -19 6 -21 43 -3 47 -3 47 32 51 26 3 36 0 39 -12 2 -9 7 -4
12 13 7 27 -3 54 -12 30 -3 -8 -25 -13 -59 -13 l-54 0 0 36 c0 21 -4 33 -10
29 -5 -3 -10 -19 -10 -36 0 -21 -5 -29 -17 -29 -15 0 -18 9 -17 63 2 99 3 107
19 107 11 0 15 -11 15 -40 0 -22 5 -40 10 -40 6 0 10 18 10 40 l0 40 49 0 c47
0 49 1 53 30 4 25 1 30 -16 31 -12 1 -25 0 -31 -1 -5 -2 -31 -6 -58 -11 -58
-10 -85 -32 -66 -55 9 -11 9 -18 1 -26 -7 -7 -12 -40 -12 -75 0 -56 -2 -63
-20 -63 -18 0 -20 7 -20 69 0 64 -1 69 -20 64 -11 -3 -20 -9 -20 -14 0 -5 -11
-9 -25 -9 -14 0 -25 -4 -25 -10 0 -5 6 -10 14 -10 8 0 17 -6 19 -12 3 -8 6 -6
6 5 1 17 12 22 24 10 4 -3 2 -12 -4 -19 -7 -8 -7 -14 1 -19 8 -5 7 -11 -2 -23
-10 -12 -10 -16 -1 -19 10 -4 9 -11 -2 -34 -10 -18 -11 -29 -5 -29 7 0 8 -6 2
-17 -5 -10 -7 -24 -5 -30 3 -7 -3 -20 -12 -29 -9 -9 -13 -19 -10 -22 3 -4 10
0 16 8 7 11 8 7 3 -12 -5 -24 -2 -29 21 -38 14 -5 41 -10 59 -10 l33 0 6 -67
c7 -87 3 -95 -42 -91 l-36 3 -3 78 c-2 59 -6 77 -17 77 -9 0 -12 -6 -9 -18 4
-13 1 -12 -14 5 -17 19 -21 20 -26 8 -4 -10 3 -20 19 -27 14 -6 26 -14 26 -17
8 -34 5 -52 -7 -47 -8 3 -14 1 -14 -4 0 -6 -10 -6 -27 1 -18 6 -30 6 -36 0 -7
-7 -15 -7 -22 -1 -6 5 -51 14 -99 20 -49 6 -97 15 -108 21 -10 5 -18 8 -18 5
0 -3 -42 17 -92 44 -51 26 -92 53 -90 59 1 6 -1 11 -5 10 -5 -1 -18 2 -30 6
-23 7 -32 25 -12 25 5 0 7 5 4 10 -4 6 -10 8 -15 5 -15 -9 -50 14 -50 31 0 9
-6 14 -13 11 -20 -7 -97 95 -98 130 0 15 -3 22 -6 16 -2 -7 -9 -13 -14 -13 -4
0 -5 7 -2 17 5 12 3 14 -7 8 -10 -6 -12 -4 -7 9 4 10 3 15 -3 11 -6 -3 -10 -1
-10 5 0 6 -7 18 -16 27 -8 9 -13 22 -10 29 3 8 1 14 -4 14 -15 0 -50 76 -50
108 0 15 -5 33 -11 39 -8 8 -5 13 12 18 13 4 32 18 42 31 10 13 25 24 32 24 8
0 17 5 20 10 4 6 -3 9 -15 7 -12 -2 -26 -10 -31 -18 -7 -11 -9 -11 -9 3 0 19
35 42 50 33 6 -3 10 1 10 9 0 8 11 23 25 34 17 14 21 22 13 25 -7 2 -1 8 14
12 16 4 26 11 23 15 -3 4 10 14 28 21 37 15 47 27 40 45 -4 10 -14 8 -43 -9
-21 -12 -36 -25 -34 -29 7 -11 -8 -10 -25 1 -12 8 -12 12 2 26 10 9 17 23 17
31 0 8 3 14 8 14 4 0 8 15 9 33 6 96 24 167 45 178 15 8 17 14 8 24 -12 15 6
55 25 55 5 -1 33 -30 62 -66 46 -57 52 -69 48 -102 -2 -20 -4 -45 -4 -54 -1
-24 -28 -23 -36 1 -9 30 -47 34 -68 8 -17 -22 -17 -21 -11 30 6 49 5 51 -15
46 -11 -3 -21 -9 -21 -13 0 -5 -3 -16 -7 -26 -4 -11 -3 -15 5 -10 14 8 26 -29
23 -71 -2 -39 18 -44 43 -10 10 14 16 17 15 7 -3 -36 1 -42 17 -25 24 23 28
12 10 -27 -9 -18 -11 -24 -4 -14 21 31 66 75 71 70 3 -3 8 4 12 15 3 12 11 21
16 21 18 0 8 -26 -32 -79 -44 -58 -49 -78 -7 -31 14 17 24 30 21 30 -3 0 5 8
17 18 14 11 23 29 23 48 0 17 8 36 20 47 20 17 20 18 2 35 -17 16 -18 16 -12
0 4 -12 1 -18 -8 -18 -8 0 -15 -6 -15 -14 0 -17 -28 -41 -37 -32 -3 3 1 14 10
24 10 10 19 37 21 59 2 22 9 51 16 63 l13 23 12 -23 c7 -13 15 -18 19 -12 3 6
2 13 -4 17 -5 3 -10 13 -10 22 0 13 2 14 17 2 15 -13 16 -12 11 9 -4 12 -3 20
1 17 4 -2 17 14 29 37 19 38 19 44 6 69 -18 36 -18 73 1 89 18 15 21 44 3 34
-10 -6 -10 -4 -2 7 6 8 14 26 18 42 7 29 68 92 101 103 11 4 25 14 32 23 11
15 12 14 13 -1 0 -10 -3 -18 -7 -18 -13 -1 -56 -40 -51 -46 8 -7 78 36 78 48
0 5 5 6 11 2 7 -4 7 -10 1 -16 -6 -6 -8 -17 -5 -24 3 -8 1 -14 -5 -14 -5 0
-13 -7 -16 -16 -4 -10 -2 -13 7 -7 19 12 37 12 37 0 0 -5 3 -8 6 -4 3 3 3 11
-2 18 -14 23 -13 79 1 79 32 0 45 -12 34 -31 -5 -11 -14 -17 -18 -15 -4 3 -8
-1 -8 -9 0 -20 11 -19 31 4 18 20 52 18 39 -2 -4 -6 0 -8 11 -4 13 5 21 -2 32
-29 19 -45 5 -68 -31 -54 -15 6 -25 5 -27 -1 -2 -5 -16 -12 -33 -15 -16 -3
-35 -14 -43 -25 -7 -11 -18 -16 -24 -13 -7 5 -9 1 -5 -9 4 -10 1 -17 -6 -18
-9 0 -9 -2 1 -6 6 -2 12 -11 12 -19 0 -20 -19 -7 -30 20 l-9 21 0 -22 c-1 -13
4 -23 9 -23 6 0 10 -7 10 -16 0 -8 -4 -12 -10 -9 -6 4 -10 -17 -9 -57 1 -35 4
-54 6 -43 3 11 11 23 19 28 7 4 11 14 8 21 -3 8 2 28 10 45 9 17 15 34 14 38
-1 4 1 18 5 30 6 16 19 23 50 28 23 4 63 17 89 29 l46 22 4 -35 c1 -20 1 -56
-2 -80 -4 -39 -7 -42 -19 -28 -9 12 -10 17 -2 17 17 0 4 18 -22 32 -19 10 -20
9 -10 -4 7 -8 10 -18 6 -22 -11 -11 -12 -35 -2 -42 5 -3 9 0 9 7 0 9 3 9 14 0
16 -13 13 -64 -6 -114 -8 -20 -7 -31 2 -42 7 -9 10 -26 6 -42 -5 -19 -4 -23 3
-14 7 11 10 10 14 -5 2 -10 5 7 6 39 0 33 5 56 10 52 5 -3 12 -1 16 5 3 5 2
10 -3 10 -14 0 -12 68 4 118 11 34 12 58 4 110 -10 63 -14 70 -68 123 -56 55
-58 56 -129 62 -39 4 -80 4 -90 1 -107 -36 -164 -109 -179 -229 -2 -22 -7 -47
-9 -55 -3 -9 -1 -30 4 -48 8 -27 7 -34 -10 -43 -13 -7 -18 -16 -14 -27 3 -9 3
-13 -1 -10 -12 13 -50 -40 -63 -89 -5 -21 -11 -16 -64 48 -31 39 -57 78 -57
86 0 10 -6 12 -20 8 -24 -8 -24 -1 -5 78 7 32 11 75 8 94 -4 26 -3 34 5 29 8
-5 12 0 12 13 0 40 165 137 310 183 67 20 94 23 245 22 168 0 171 -1 271 -35
276 -96 486 -316 564 -590 26 -92 36 -268 21 -364 -6 -38 -13 -86 -16 -105
l-4 -35 8 33 c11 40 21 53 21 25 0 -31 -21 -84 -31 -77 -5 3 -9 -9 -9 -25 0
-17 4 -31 10 -31 5 0 7 7 4 15 -4 8 -2 15 3 15 5 0 20 37 34 83 21 73 24 100
24 252 -1 150 -4 179 -24 245 -58 184 -167 343 -316 462 -38 31 -141 98 -150
98 -3 0 -32 12 -62 26 -31 14 -65 23 -75 21 -10 -3 -16 -2 -13 3 7 11 -76 30
-166 38 -84 8 -231 4 -225 -6 2 -4 -28 -7 -68 -8 -84 -1 -163 -29 -145 -51 9
-10 8 -13 -5 -13 -9 0 -16 5 -16 10 0 6 -5 10 -11 10 -5 0 -7 -4 -4 -10 3 -5
-1 -10 -10 -10 -9 0 -13 -4 -10 -10 3 -5 0 -7 -9 -4 -8 3 -28 -2 -45 -11 -36
-18 -41 -30 -10 -20 15 5 19 4 14 -5 -4 -7 -17 -9 -31 -6 -13 4 -24 3 -24 -1
0 -5 -10 -13 -22 -18 -13 -6 -23 -19 -23 -30 0 -15 -7 -20 -28 -21 -27 -1 -57
-28 -53 -49 2 -5 1 -7 -1 -2 -7 11 -23 8 -23 -4 0 -12 -30 -44 -30 -32 0 4 -9
-3 -19 -16 -10 -14 -17 -30 -15 -36 3 -6 -7 -17 -21 -23 -34 -16 -35 -15 -28
6 5 14 3 14 -10 -3 -8 -10 -12 -26 -9 -34 3 -9 1 -12 -6 -7 -8 5 -10 1 -5 -10
4 -12 3 -15 -5 -10 -8 4 -10 2 -6 -8 3 -8 -3 -19 -15 -26 -15 -7 -21 -21 -21
-43 0 -24 -3 -28 -10 -17 -8 13 -10 13 -10 -2 0 -9 5 -18 12 -20 8 -3 8 -9 0
-24 -10 -16 -11 -17 -12 -2 0 9 -4 20 -10 23 -6 4 -7 -1 -3 -10 3 -10 1 -20
-6 -24 -6 -4 -13 -21 -14 -38 -2 -16 -8 -36 -13 -44 -29 -46 -44 -289 -24
-401 30 -164 105 -328 206 -446 21 -25 30 -30 37 -20 6 10 8 9 4 -3 -12 -36
184 -187 306 -236 92 -36 143 -50 232 -63 83 -12 318 -9 370 5 24 6 28 5 18
-5 -9 -10 -8 -16 4 -28 12 -13 16 -13 23 -1 5 7 12 10 16 6 33 -33 -148 -57
-226 -30 -25 8 -260 7 -268 -2 -4 -4 12 -5 36 -1 34 5 42 3 42 -10 0 -10 -6
-14 -17 -10 -10 2 -37 8 -61 11 -45 7 -48 24 -4 26 31 1 32 0 -68 29 -71 21
-139 48 -150 61 -3 3 -20 11 -38 19 -19 7 -39 18 -45 24 -39 36 -107 75 -121
70 -14 -5 -14 -9 -4 -23 7 -9 -3 -2 -23 14 -40 33 -64 65 -50 65 5 0 19 -11
32 -25 13 -13 31 -25 39 -24 11 0 9 5 -7 18 -13 11 -23 22 -23 25 0 3 -22 27
-48 54 -54 55 -139 177 -164 237 -45 111 -57 143 -63 178 -8 39 -21 49 -28 20
-3 -11 -5 -7 -6 10 -1 17 3 26 9 22 5 -3 10 1 10 10 0 9 -3 14 -7 12 -5 -3 -8
81 -8 186 -1 106 1 179 3 162 4 -25 7 -21 18 30 24 106 39 149 63 188 15 25
21 46 17 62 -3 13 -2 27 4 30 5 3 10 1 10 -4 0 -6 5 -11 10 -11 7 0 7 7 0 21
-7 11 -9 23 -6 27 3 3 6 1 6 -5 0 -5 7 -10 15 -10 11 0 12 4 4 14 -8 9 -6 21
10 45 11 18 21 27 21 20 0 -7 -7 -24 -16 -37 -10 -15 -12 -25 -5 -25 6 0 11 4
11 10 0 5 23 35 51 66 40 44 48 58 39 69 -18 22 -7 41 12 22 14 -14 19 -12 55
21 70 66 107 92 187 132 43 22 76 40 73 40 -3 0 -13 3 -23 7 -13 5 -15 3 -9
-7 5 -8 3 -11 -5 -8 -26 8 -22 28 5 28 15 0 24 4 20 10 -3 6 3 10 15 10 12 0
19 4 16 9 -4 5 3 7 13 4 12 -3 28 4 41 17 14 14 30 20 46 17 13 -2 22 -1 19 2
-3 7 111 35 180 45 66 10 242 -6 334 -30z m-716 -124 c-10 -3 -37 -17 -60 -32
-46 -30 -53 -33 -53 -19 0 4 20 21 45 37 25 15 45 32 45 36 0 5 9 3 20 -4 19
-12 19 -13 3 -18z m-123 -66 c0 -16 -43 -42 -58 -36 -14 5 -12 7 8 12 14 4 24
12 23 18 -2 7 4 12 12 12 8 0 15 -3 15 -6z m-60 -53 c0 -5 -13 -19 -30 -31
-21 -15 -30 -17 -30 -8 0 7 12 20 28 30 34 20 32 20 32 9z m20 -308 c-23 -109
-55 -265 -71 -348 -16 -82 -33 -153 -37 -157 -4 -4 -23 -14 -44 -22 -33 -14
-37 -14 -42 0 -5 13 -1 15 17 10 22 -5 26 0 50 62 48 126 46 142 -20 142 -30
0 -32 -2 -39 -47 -4 -26 -8 -69 -9 -97 -1 -28 -3 -51 -5 -51 -1 0 -3 -22 -6
-49 -2 -27 -7 -53 -12 -58 -10 -10 -19 81 -22 204 -1 71 1 77 17 72 14 -5 15
-4 4 4 -31 22 17 195 87 315 40 71 162 230 169 223 2 -2 -14 -93 -37 -203z
m-153 37 c-10 -17 -13 -30 -8 -30 6 0 11 5 11 12 0 6 3 9 6 5 4 -3 -3 -21 -14
-39 -26 -42 -67 -166 -81 -243 -72 -400 116 -781 477 -965 98 -50 259 -90 360
-90 23 0 42 -4 42 -10 0 -12 -8 -13 -82 -11 -31 1 -60 -3 -63 -9 -3 -5 -14
-10 -23 -9 -12 0 -9 4 8 11 l25 11 -25 4 c-107 17 -332 106 -353 140 -5 8 -19
11 -35 8 -19 -4 -22 -3 -8 3 16 7 11 14 -36 50 -59 45 -113 106 -168 187 -19
28 -38 53 -43 56 -5 3 -7 8 -6 10 2 2 -10 30 -25 63 -76 162 -98 393 -54 579
12 50 25 94 28 97 3 3 14 32 24 65 10 33 22 74 28 90 6 17 11 38 11 47 1 12 5
14 11 8 7 -7 4 -20 -7 -40z m1374 -231 c-12 -19 -21 -29 -21 -24 0 13 -113 13
-122 0 -4 -5 -10 -6 -14 -3 -11 11 23 38 40 32 12 -5 15 -2 10 10 -6 15 4 20
33 17 6 -1 14 3 18 9 4 6 12 5 21 -5 19 -18 38 -9 29 14 -6 15 -5 15 10 0 15
-15 15 -19 -4 -50z m-1336 -146 c-4 -10 -12 -31 -18 -48 -5 -16 -14 -41 -20
-55 -9 -24 -10 -24 -18 -5 -11 29 -10 43 2 25 8 -12 10 -12 8 5 -2 28 11 65
23 65 6 0 8 7 4 15 -3 9 0 15 10 15 12 0 14 -5 9 -17z m-255 -83 c-6 -42 -8
-47 -9 -20 -1 34 8 84 14 78 2 -2 0 -28 -5 -58z m1590 -50 c0 -37 -2 -40 -19
-31 -10 6 -22 7 -26 3 -5 -4 -5 -1 -1 6 4 7 13 9 19 5 8 -5 8 -2 0 9 -7 8 -10
18 -7 21 4 3 -3 5 -15 4 -21 -1 -31 -17 -10 -17 5 0 7 -5 3 -12 -5 -7 -11 -5
-21 8 -13 17 -11 20 14 31 52 22 63 17 63 -27z m-1507 -362 c9 -21 15 -38 13
-38 -10 0 -46 63 -40 71 8 13 9 12 27 -33z m42 -91 c20 -41 10 -48 -12 -8 -10
17 -21 31 -25 31 -5 0 -8 4 -8 10 0 19 30 -3 45 -33z m960 -150 c0 -57 3 -67
17 -67 18 0 23 12 36 90 6 35 12 45 27 45 15 0 22 -12 32 -60 16 -80 16 -105
-1 -105 -8 0 -16 6 -19 13 -4 9 -7 9 -18 -1 -12 -11 -12 -14 1 -23 8 -5 23 -7
33 -5 9 2 17 3 17 1 0 -2 3 -10 6 -19 4 -12 0 -16 -15 -16 -13 0 -21 -6 -21
-16 0 -10 6 -14 15 -10 11 4 15 -2 15 -20 0 -19 -4 -25 -15 -20 -12 4 -15 -3
-15 -29 0 -27 -4 -35 -17 -35 -16 0 -18 9 -15 81 3 72 1 83 -17 100 -12 11
-21 15 -21 9 0 -5 -13 -10 -30 -10 -30 0 -30 0 -31 58 0 31 -3 70 -5 85 -4 25
-2 28 18 25 21 -3 23 -8 23 -71z m243 -196 l3 -82 -43 3 -43 3 -3 78 c-3 72
-1 77 18 77 18 0 20 -6 20 -65 0 -37 4 -65 10 -65 6 0 10 30 10 71 0 52 3 70
13 67 8 -3 13 -32 15 -87z m90 67 c3 -13 -3 -18 -22 -18 -32 0 -35 -27 -3 -32
19 -3 22 -9 22 -48 0 -45 0 -45 -35 -45 -24 0 -35 5 -35 15 0 8 8 14 18 14 10
-1 17 5 17 17 0 12 -7 19 -20 19 -17 0 -20 7 -20 44 0 26 5 47 13 50 24 10 62
1 65 -16z m-635 -119 c9 0 17 -4 17 -10 0 -12 -8 -11 -55 7 -30 11 -32 13 -10
9 17 -3 38 -6 48 -6z m-198 -16 c19 -9 35 -20 35 -25 0 -4 6 -5 13 -2 8 3 19
-2 26 -10 7 -8 19 -12 27 -9 8 3 22 2 32 -2 16 -7 16 -8 -2 -14 -24 -9 -116
23 -133 46 -7 8 -24 16 -38 16 -14 0 -28 3 -31 8 -9 15 33 10 71 -8z m495 -92
c34 -6 12 -9 -85 -9 -81 0 -122 3 -110 8 25 11 136 11 195 1z"/>
<path d="M966 2205 c-21 -7 -50 -16 -64 -20 -22 -5 -24 -4 -13 9 8 9 9 16 5
16 -5 0 -14 -8 -21 -19 -12 -19 -73 -35 -73 -19 0 4 -4 8 -10 8 -5 0 -7 -7 -4
-15 4 -10 -3 -16 -23 -21 -54 -12 -63 -16 -58 -24 6 -9 27 -3 90 25 16 7 74
21 128 30 200 36 425 4 599 -85 253 -129 415 -329 503 -620 18 -57 37 -372 23
-363 -5 2 -8 -9 -8 -26 0 -27 -10 -68 -44 -186 -6 -22 -18 -52 -26 -67 -46
-82 -69 -128 -61 -123 6 3 12 1 16 -5 7 -12 25 -4 25 12 0 5 -7 8 -15 4 -8 -3
-15 -1 -15 4 0 6 4 10 9 10 5 0 13 10 17 23 3 12 14 30 22 40 16 18 17 18 23
0 6 -15 8 -14 10 7 3 33 4 41 13 65 5 11 12 32 18 47 6 15 20 69 33 120 32
127 28 289 -9 438 -15 56 -33 115 -40 129 -8 14 -26 51 -42 81 -100 198 -266
355 -484 456 -30 14 -72 28 -92 31 -21 3 -36 9 -34 12 3 4 -3 7 -12 8 -9 1
-44 7 -77 13 -101 18 -265 21 -309 5z"/>
<path d="M1063 2163 c20 -2 54 -2 75 0 20 2 3 4 -38 4 -41 0 -58 -2 -37 -4z"/>
<path d="M1385 2116 c51 -16 200 -91 237 -119 184 -141 287 -279 356 -477 18
-52 31 -79 29 -60 -8 58 -69 200 -120 277 -77 118 -165 205 -302 298 -58 39
-191 96 -224 94 -9 0 2 -6 24 -13z"/>
<path d="M811 1773 c-16 -67 -9 -81 9 -18 10 36 15 43 26 34 11 -9 14 -8 14 2
0 8 -8 19 -19 26 -16 10 -19 6 -30 -44z"/>
<path d="M900 1800 c-7 -18 -20 -30 -31 -30 -30 0 -29 -15 1 -16 23 -1 29 5
38 34 14 45 9 53 -8 12z"/>
<path d="M1055 1790 c3 -5 13 -10 21 -10 8 0 12 -5 9 -10 -4 -6 -12 -7 -22 -1
-18 9 -53 3 -53 -10 0 -4 9 -13 20 -19 15 -8 20 -8 18 1 -2 6 3 14 11 17 9 3
11 0 6 -9 -5 -8 -4 -11 0 -6 5 4 15 -5 22 -20 7 -16 11 -21 9 -12 -3 9 2 26
10 37 12 18 12 22 -2 36 -17 17 -59 22 -49 6z"/>
<path d="M906 1698 c-9 -34 -7 -86 3 -92 5 -3 9 21 9 54 0 65 -2 72 -12 38z"/>
<path d="M1060 1660 c0 -12 33 -30 55 -30 9 0 15 6 12 13 -2 6 -14 11 -26 10
-11 -2 -21 2 -21 7 0 6 -4 10 -10 10 -5 0 -10 -4 -10 -10z"/>
<path d="M852 1608 c-1 -10 -6 -18 -12 -18 -13 0 -13 -50 0 -70 7 -11 2 -17
-18 -26 -25 -10 -23 -11 22 -11 39 0 46 3 33 12 -11 7 -17 32 -20 71 -2 32 -4
51 -5 42z"/>
<path d="M796 1582 c-4 -18 -12 -30 -17 -26 -8 5 -13 -12 -12 -43 1 -7 -3 -10
-8 -8 -11 7 -32 -33 -24 -45 10 -16 23 -2 51 52 14 27 24 61 22 76 -4 26 -4
26 -12 -6z"/>
<path d="M1035 1600 c-20 -9 -20 -9 0 -10 11 -2 26 -2 32 -1 7 1 22 -3 33 -9
16 -8 20 -8 20 3 0 23 -48 33 -85 17z"/>
<path d="M912 1567 c-18 -42 -15 -68 3 -33 9 17 14 37 12 45 -3 11 -7 7 -15
-12z"/>
<path d="M1063 1573 c-22 -8 -14 -23 12 -23 14 0 25 4 25 9 0 11 -21 19 -37
14z"/>
<path d="M930 1526 c0 -8 7 -17 16 -20 8 -3 12 -11 9 -16 -10 -15 18 -7 31 9
9 11 11 9 9 -10 -1 -19 -7 -24 -26 -23 -40 2 -41 3 -35 19 3 8 1 15 -3 15 -20
0 -17 -26 4 -46 37 -34 60 -35 79 -3 9 15 26 29 38 31 12 2 23 9 26 17 3 8 0
11 -5 8 -5 -3 -15 -2 -23 3 -9 5 -19 5 -26 -1 -8 -7 -14 -6 -19 1 -3 5 -17 7
-31 4 -18 -5 -24 -2 -24 10 0 9 -4 16 -10 16 -5 0 -10 -6 -10 -14z"/>
<path d="M1101 1498 c1 -13 5 -34 9 -48 7 -20 8 -16 9 23 1 26 -3 47 -9 47 -5
0 -10 -10 -9 -22z"/>
<path d="M792 1438 c3 -7 -5 -18 -16 -24 -12 -6 -20 -16 -18 -23 1 -6 -4 -11
-11 -9 -7 2 -15 -1 -17 -6 -3 -5 5 -10 17 -11 12 -1 20 2 17 7 -4 5 2 8 12 6
10 -2 19 3 20 10 1 6 2 17 3 22 2 16 81 13 81 -3 0 -7 10 -24 22 -37 l22 -23
-21 5 c-16 4 -20 2 -16 -8 7 -18 17 -18 33 1 10 12 10 18 0 30 -7 8 -10 21 -7
29 4 11 1 13 -11 9 -15 -6 -15 -5 -3 10 8 10 9 17 3 17 -6 0 -18 3 -28 7 -12
4 -15 3 -10 -5 5 -8 -4 -12 -29 -12 -22 0 -34 4 -30 10 3 6 1 10 -5 10 -7 0
-10 -6 -8 -12z"/>
<path d="M2017 1355 c3 -38 7 -72 9 -74 7 -8 2 84 -6 114 -5 18 -6 2 -3 -40z"/>
<path d="M976 1352 l6 -44 -26 17 c-23 15 -26 16 -26 2 0 -18 34 -40 44 -29 4
3 4 -1 1 -10 -5 -13 -2 -15 14 -11 16 4 22 -2 30 -28 5 -19 10 -25 10 -15 1
17 3 17 21 -4 12 -14 18 -32 15 -44 -3 -12 -2 -16 1 -9 3 7 11 10 18 7 7 -3
19 2 26 11 12 14 5 24 -48 77 -34 33 -62 56 -63 52 0 -5 -7 9 -14 31 l-14 40
5 -43z"/>
<path d="M767 1345 c-11 -8 -26 -11 -35 -8 -13 4 -14 3 -4 -5 11 -7 9 -10 -8
-15 -25 -6 -18 -27 8 -26 14 0 13 2 -3 9 -19 8 -19 9 2 9 12 1 23 6 25 12 3 9
10 9 27 -1 17 -9 20 -14 11 -20 -8 -5 -8 -10 -2 -14 5 -3 13 2 16 11 6 16 -8
32 -29 33 -5 0 -3 4 5 10 8 5 12 11 10 14 -3 2 -13 -2 -23 -9z"/>
<path d="M1806 1318 c-5 -16 -5 -36 0 -45 7 -16 8 -15 11 5 3 12 3 32 0 45 -3
21 -4 20 -11 -5z"/>
<path d="M655 1250 c-16 -18 -17 -20 -1 -26 11 -4 27 2 43 17 16 15 24 18 21
9 -4 -11 1 -16 15 -18 18 -1 19 1 7 9 -11 8 -7 9 15 4 16 -4 33 -12 37 -18 4
-7 8 -8 8 -2 0 5 8 -6 19 -25 10 -19 17 -38 14 -42 -2 -5 1 -8 6 -8 15 0 14
53 -1 72 -42 51 -147 67 -183 28z"/>
<path d="M1879 1242 c-12 -8 -20 -11 -16 -6 10 17 -47 4 -73 -17 -19 -14 -21
-19 -9 -19 17 0 35 -43 21 -48 -4 -1 -6 -28 -6 -60 2 -94 6 -101 14 -25 10 89
33 132 88 159 33 18 38 23 22 27 -10 3 -29 -2 -41 -11z"/>
<path d="M1167 1180 c-3 -11 -1 -18 4 -14 5 3 9 0 9 -5 0 -6 7 -11 15 -11 8 0
15 -4 15 -10 0 -5 5 -10 10 -10 6 0 10 7 10 15 0 8 -4 15 -10 15 -5 0 -10 6
-10 14 0 8 -7 17 -16 20 -21 8 -21 8 -27 -14z"/>
<path d="M960 1179 c0 -9 -7 -22 -15 -29 -9 -7 -14 -19 -11 -27 8 -19 -7 -16
-32 7 -12 12 -22 17 -22 11 0 -5 -8 -7 -18 -4 -20 5 -102 -33 -102 -47 0 -5 4
-12 10 -15 6 -4 7 1 3 11 -5 14 -3 16 11 11 10 -4 24 -1 33 9 11 10 25 14 42
10 90 -20 120 -23 156 -16 22 4 33 8 25 9 -8 1 -26 4 -39 8 -18 5 -22 3 -16
-7 6 -10 4 -12 -9 -7 -10 4 -20 7 -22 7 -2 0 -4 9 -4 21 0 15 5 19 15 15 17
-6 20 11 5 34 -8 13 -10 13 -10 -1z"/>
<path d="M1021 1168 c-7 -15 -11 -32 -9 -39 6 -19 30 26 26 48 -2 12 -6 10
-17 -9z"/>
<path d="M407 1139 c-16 -15 -26 -33 -22 -39 3 -5 1 -10 -5 -10 -6 0 -8 -5 -5
-10 4 -6 -9 -29 -29 -50 -32 -36 -49 -69 -28 -56 5 3 21 -2 37 -10 30 -16 75
-11 75 7 0 6 -6 7 -12 2 -23 -14 -38 -11 -49 9 -9 16 -13 17 -26 6 -13 -10
-15 -9 -11 7 2 11 11 19 21 19 9 -1 14 2 12 7 -3 4 3 13 14 18 13 8 18 20 17
41 -2 28 4 34 29 31 6 0 10 13 11 29 1 17 1 29 0 29 -1 -1 -14 -14 -29 -30z"/>
<path d="M1862 1106 c-4 -71 3 -71 16 1 6 37 6 53 -2 56 -7 3 -12 -17 -14 -57z"/>
<path d="M1060 1139 c-11 -8 -12 -12 -2 -16 6 -2 12 -11 12 -19 0 -19 20 -18
34 2 14 19 46 9 46 -15 0 -9 5 -22 12 -29 9 -9 8 -12 -5 -12 -11 0 -14 -5 -10
-17 6 -16 5 -16 -11 -4 -9 8 -16 10 -14 4 4 -13 -72 -83 -89 -83 -18 0 -16
-29 2 -36 16 -6 21 -34 6 -34 -5 0 -9 -17 -9 -37 0 -59 -1 -65 -11 -59 -12 8
-19 -12 -27 -76 -4 -29 -13 -65 -20 -80 -12 -23 -12 -29 1 -42 19 -19 19 -26
-2 -26 -15 0 -14 -2 2 -14 11 -8 24 -12 29 -9 5 4 7 2 4 -3 -3 -5 5 -17 18
-27 13 -10 24 -15 24 -12 0 15 -30 62 -53 84 -14 13 -23 29 -20 37 7 20 17 17
28 -8 19 -42 30 -29 31 38 1 36 -2 61 -6 54 -5 -8 -9 -4 -13 12 -9 30 -9 53 0
45 14 -15 41 53 67 164 3 16 23 38 48 55 44 30 58 45 93 98 15 25 16 28 3 18
-15 -12 -21 -9 -49 22 -25 29 -38 36 -68 36 -20 0 -43 -5 -51 -11z"/>
<path d="M1768 1114 c-11 -11 -14 -28 -10 -61 4 -36 2 -44 -8 -38 -10 6 -12 1
-7 -25 4 -18 7 -44 7 -58 0 -18 3 -23 10 -16 6 6 13 48 15 95 3 46 8 92 11
102 7 21 3 21 -18 1z"/>
<path d="M1310 753 c0 -55 3 -74 10 -63 12 18 11 140 -1 140 -5 0 -9 -35 -9
-77z"/>
<path d="M1397 816 c-4 -11 -13 -16 -22 -12 -10 3 -15 -1 -15 -13 0 -22 39
-36 46 -16 3 7 4 24 2 37 -3 21 -4 21 -11 4z"/>
<path d="M980 807 c0 -9 -4 -17 -9 -17 -5 0 -11 -18 -13 -39 -2 -22 0 -38 3
-35 9 5 31 95 24 102 -3 3 -5 -2 -5 -11z"/>
<path d="M1390 739 c0 -6 -7 -9 -15 -5 -10 4 -15 -1 -15 -14 0 -11 4 -20 9
-20 15 0 42 31 36 41 -8 12 -15 11 -15 -2z"/>
<path d="M840 570 c36 -12 62 -12 55 0 -3 6 -23 10 -43 9 -33 -1 -34 -2 -12
-9z"/>
<path d="M963 504 c0 -15 24 -27 38 -18 8 4 13 -8 11 -27 -1 -3 10 -11 23 -17
19 -9 24 -8 30 6 3 9 3 13 -1 10 -3 -4 -17 6 -30 21 -26 31 -71 46 -71 25z"/>
<path d="M880 461 c0 -5 -10 -12 -22 -15 -21 -6 -21 -7 -5 -17 11 -7 23 -7 35
0 9 6 12 11 5 11 -7 0 -10 7 -7 15 4 8 3 15 0 15 -3 0 -6 -4 -6 -9z"/>
<path d="M919 433 c-9 -10 -6 -13 15 -13 14 0 29 0 32 1 4 0 10 -3 13 -8 11
-15 71 -32 77 -22 8 13 -15 39 -33 39 -11 0 -8 -6 8 -20 l24 -20 -32 17 c-17
10 -29 21 -27 25 8 13 -11 9 -24 -4 -9 -9 -12 -9 -12 3 0 19 -26 20 -41 2z"/>
<path d="M1188 443 c-2 -5 -1 -30 3 -58 l6 -50 1 58 c2 52 -2 69 -10 50z"/>
</g>
</svg>
